{"title":"American Car Prospector S01E05 - shadowCopy","uid":9424184,"size":634895365,"categoryP":"video","categoryS":"tv_shows","magnet":"?xt=urn:btih:e3703fb79805b79a23dc3a4e867d018098cbb6a8&amp;dn=American+Car+Prospector+S01E05+-+shadowCopy&amp;tr=udp%3A%2F%2Ftracker.openbittorrent.com%3A80&amp;tr=udp%3A%2F%2Fopen.demonii.com%3A1337&amp;tr=udp%3A%2F%2Ftracker.coppersurfer.tk%3A6969&amp;tr=udp%3A%2F%2Fexodus.desync.com%3A6969","seeders":1,"leechers":0,"uploader":"tlbslicer","files":3,"time":1388658077,"description":" &lt;a href=&quot;http://s13.postimg.org/m0dscolcn/vlcsnap.png&quot; rel=&quot;nofollow&quot; target=&quot;_NEW&quot;&gt;http://s13.postimg.org/m0dscolcn/vlcsnap.png&lt;/a&gt;\n\n\nAmerican.Car.Prospector.S01E05-shadowCopy\n\nFormat                                   : MPEG-4\nFormat profile                           : Base Media\nCodec ID                                 : isom\nFile size                                : 605 MiB\nDuration                                 : 42mn 28s\nOverall bit rate mode                    : Variable\nOverall bit rate                         : 1 993 Kbps\nWriting application                      : Lavf54.63.104\n\nVideo\nID                                       : 1\nFormat                                   : AVC\nFormat/Info                              : Advanced Video Codec\nFormat profile                           : &lt;a class=&quot;__cf_email__&quot; href=&quot;/cdn-cgi/l/email-protection&quot; data-cfemail=&quot;4e032f27200e027d607e&quot;&gt;[email&amp;#160;protected]&lt;/a&gt;&lt;script cf-hash='f9e31' type=&quot;text/javascript&quot;&gt;\n/* &lt;![CDATA[ */!function(){try{var t=&quot;currentScript&quot;in document?document.currentScript:function(){for(var t=document.getElementsByTagName(&quot;script&quot;),e=t.length;e--;)if(t[e].getAttribute(&quot;cf-hash&quot;))return t[e]}();if(t&amp;&amp;t.previousSibling){var e,r,n,i,c=t.previousSibling,a=c.getAttribute(&quot;data-cfemail&quot;);if(a){for(e=&quot;&quot;,r=parseInt(a.substr(0,2),16),n=2;a.length-n;n+=2)i=parseInt(a.substr(n,2),16)^r,e+=String.fromCharCode(i);e=document.createTextNode(e),c.parentNode.replaceChild(e,c)}}}catch(u){}}();/* ]]&gt; */&lt;/script&gt;\nFormat settings, CABAC                   : Yes\nFormat settings, ReFrames                : 3 frames\nCodec ID                                 : avc1\nCodec ID/Info                            : Advanced Video Coding\nDuration                                 : 42mn 28s\nBit rate                                 : 1 859 Kbps\nWidth                                    : 720 pixels\nHeight                                   : 576 pixels\nDisplay aspect ratio                     : 4:3\nFrame rate mode                          : Variable\nFrame rate                               : 32.612 fps\nOriginal frame rate                      : 25.000 fps\nMinimum frame rate                       : 5.556 fps\nMaximum frame rate                       : 50.000 fps\nStandard                                 : PAL\nColor space                              : YUV\nChroma subsampling                       : 4:2:0\nBit depth                                : 8 bits\nScan type                                : Interlaced\nScan order                               : Top Field First\nBits/(Pixel*Frame)                       : 0.137\nStream size                              : 565 MiB (93%)\nColor primaries                          : BT.601 PAL\nTransfer characteristics                 : BT.470 System B, BT.470 System G\nMatrix coefficients                      : BT.601\n\nAudio\nID                                       : 2\nFormat                                   : AAC\nFormat/Info                              : Advanced Audio Codec\nFormat profile                           : HE-AAC / LC\nCodec ID                                 : 40\nDuration                                 : 42mn 28s\nBit rate mode                            : Variable\nBit rate                                 : 126 Kbps\nMaximum bit rate                         : 128 Kbps\nChannel(s)                               : 2 channels\nChannel positions                        : Front: L R\nSampling rate                            : 48.0 KHz / 24.0 KHz\nCompression mode                         : Lossy\nStream size                              : 38.3 MiB (6%)\nLanguage                                 : English","torrent":{"xt":"urn:btih:e3703fb79805b79a23dc3a4e867d018098cbb6a8","amp;dn":"American+Car+Prospector+S01E05+-+shadowCopy","amp;tr":["udp%3A%2F%2Ftracker.openbittorrent.com%3A80","udp%3A%2F%2Fopen.demonii.com%3A1337","udp%3A%2F%2Ftracker.coppersurfer.tk%3A6969","udp%3A%2F%2Fexodus.desync.com%3A6969"],"infoHash":"e3703fb79805b79a23dc3a4e867d018098cbb6a8","infoHashBuffer":{"type":"Buffer","data":[227,112,63,183,152,5,183,154,35,220,58,78,134,125,1,128,152,203,182,168]},"announce":[],"urlList":[]}}